<svg width="285" height="301" xmlns="http://www.w3.org/2000/svg" xmlns:xlink="http://www.w3.org/1999/xlink"><defs><path id="a" d="M0 0h201v9H0z"/></defs><g fill="none" fill-rule="evenodd"><path d="M.336 150.5c0-82.843 67.157-150 150-150H285v300H150.336c-82.843 0-150-67.157-150-150z" fill="#FFEFF4"/><g transform="translate(54 205)"><mask id="b" fill="#fff"><use xlink:href="#a"/></mask><path d="M201 4.5C201 6.985 156.005 9 100.5 9S0 6.985 0 4.5 44.995 0 100.5 0 201 2.015 201 4.5" fill="#DEBDC7" mask="url(#b)"/></g><path d="M61.006 209h121.988a1.998 1.998 0 002.006-1.99V188H59v19.01c0 1.099.898 1.99 2.006 1.99M115 188h131v-84H119.54a4.539 4.539 0 00-4.54 4.538V188z" fill="#FF7572"/><path fill="#9E4178" d="M124 187h113v-74H124z"/><path d="M184 209h57.962c2.23 0 4.038-1.792 4.038-4.004V188h-62v21z" fill="#DB5E5E"/><path d="M244 190h6.49c2.49 0 4.51-1.91 4.51-4.267v-77.466c0-2.357-2.02-4.267-4.51-4.267H244v86z" fill="#DB5E5E"/><path stroke="#FF7572" stroke-width="8" stroke-linecap="square" stroke-linejoin="round" d="M200 101V88h-39v13"/><path fill="#9E4178" d="M156 179h34v-7h-34z"/><path fill="#792C56" d="M161 172v7M169 172v7M176 172v7M185 172v7"/><path fill="#9E4178" d="M155 187h34v-7h-34z"/><path fill="#792C56" d="M161 180v7M169 180v7M176 180v7M185 180v7"/><path fill="#9E4178" d="M156 180h34v-1h-34zM115 180h34v-7h-34z"/><path fill="#792C56" d="M122 173v7M129 173v7M136 173v7M143 173v7"/><path fill="#9E4178" d="M115 172h34v-7h-34zM123 165v7M130 165v7M137 165v7M144 165v7M115 187h34v-7h-34z"/><path fill="#792C56" d="M122 180v7M129 180v7M136 180v7M143 180v7"/><path fill="#9E4178" d="M115 173h34v-1h-34zM115 181h34v-1h-34z"/><path fill="#FAB46D" d="M113 180h34v-7h-34zM194 177h34v-7h-34z"/><path stroke="#DE8131" stroke-width=".908" d="M119 173v7M201 170v7M126 173v7M208 170v7M134 173v7M215 170v7M141 173v7M222 170v7"/><path fill="#FAB46D" d="M113 172h34v-7h-34zM194 170h34v-7h-34z"/><path stroke="#DE8131" stroke-width=".908" d="M120 165v7M202 163v7M127 165v7M208 163v7M135 165v7M216 163v7M142 165v7M223 163v7"/><path fill="#FAB46D" d="M113 187h34v-7h-34zM194 185h34v-7h-34z"/><path stroke="#DE8131" stroke-width=".908" d="M119 180v7M201 178v7M126 180v7M208 178v7M134 180v7M215 178v7M141 180v7M222 178v7"/><path fill="#9E4178" d="M113 173h34v-1h-34zM194 170h34v-1h-34zM113 181h34v-1h-34zM194 178h34v-1h-34z"/><path fill="#FAB46D" d="M153 179h34v-7h-34z"/><path stroke="#DE8131" stroke-width=".908" d="M159 172v7M166 172v7M173 172v7M180 172v7"/><path fill="#FAB46D" d="M152 187h34v-7h-34z"/><path stroke="#DE8131" stroke-width=".908" d="M159 180v7M166 180v7M173 180v7M180 180v7"/><path fill="#9E4178" d="M153 180h34v-1h-34z"/><path fill="#FAB46D" d="M153 164h34v-7h-34z"/><path stroke="#DE8131" stroke-width=".908" d="M159 157v7M166 157v7M173 157v7M180 157v7"/><path fill="#FAB46D" d="M152 171h34v-7h-34z"/><path stroke="#DE8131" stroke-width=".908" d="M159 164v7M166 164v7M173 164v7M180 164v7"/><path fill="#9E4178" d="M153 164h34v-1h-34zM58 189h138v-4H58z"/><path d="M189.148 161.259h-.055l.055-.022v.022zM187.397 170s1.203-5.706 1.291-7.865c1.649-.12 6.312-1.433 6.312-1.433-.4-.202-5.213-1.57-6.147-1.835-.042-.45-.69-7.418-.873-7.867 0 0-1.637 6.033-1.675 7.735l.033.002-.025.017c-.782.166-5.892 1.25-6.313 1.429 0 0 4.285 1.524 6.042 1.83.198 1.312 1.152 7.562 1.355 7.987z" fill="#452277"/><path d="M188.148 160.259h-.055l.055-.022v.022zm-1.75 8.741s1.202-5.706 1.29-7.865c1.649-.12 6.312-1.433 6.312-1.433-.4-.202-5.213-1.57-6.147-1.835-.042-.45-.69-7.418-.873-7.867 0 0-1.637 6.033-1.675 7.735l.033.002-.025.017c-.782.166-5.892 1.25-6.313 1.429 0 0 4.285 1.524 6.042 1.83.198 1.312 1.152 7.562 1.355 7.987z" fill="#FFF"/></g></svg>